<svg xmlns="http://www.w3.org/2000/svg" viewBox="0 0 400 400" width="400" height="400">
  <!-- Stars (purple #c4b5f4) -->
  <text x="32" y="47" font-size="10" fill="#c4b5f4" opacity="0.22" text-anchor="middle">★</text>
  <text x="145" y="83" font-size="9" fill="#c4b5f4" opacity="0.17" text-anchor="middle">★</text>
  <text x="278" y="38" font-size="11" fill="#c4b5f4" opacity="0.20" text-anchor="middle">★</text>
  <text x="361" y="112" font-size="8" fill="#c4b5f4" opacity="0.15" text-anchor="middle">★</text>
  <text x="67" y="189" font-size="10" fill="#c4b5f4" opacity="0.23" text-anchor="middle">★</text>
  <text x="213" y="162" font-size="9" fill="#c4b5f4" opacity="0.18" text-anchor="middle">★</text>
  <text x="320" y="245" font-size="11" fill="#c4b5f4" opacity="0.21" text-anchor="middle">★</text>
  <text x="88" y="318" font-size="8" fill="#c4b5f4" opacity="0.16" text-anchor="middle">★</text>
  <text x="194" y="370" font-size="10" fill="#c4b5f4" opacity="0.20" text-anchor="middle">★</text>
  <text x="347" y="355" font-size="9" fill="#c4b5f4" opacity="0.17" text-anchor="middle">★</text>

  <!-- Dots (green #86efac) -->
  <circle cx="58" cy="72" r="2.5" fill="#86efac" opacity="0.16"/>
  <circle cx="110" cy="29" r="2" fill="#86efac" opacity="0.13"/>
  <circle cx="197" cy="55" r="3" fill="#86efac" opacity="0.18"/>
  <circle cx="305" cy="90" r="2.5" fill="#86efac" opacity="0.15"/>
  <circle cx="380" cy="48" r="2" fill="#86efac" opacity="0.14"/>
  <circle cx="24" cy="145" r="3" fill="#86efac" opacity="0.17"/>
  <circle cx="162" cy="128" r="2.5" fill="#86efac" opacity="0.16"/>
  <circle cx="248" cy="205" r="2" fill="#86efac" opacity="0.13"/>
  <circle cx="376" cy="178" r="3" fill="#86efac" opacity="0.18"/>
  <circle cx="45" cy="255" r="2.5" fill="#86efac" opacity="0.15"/>
  <circle cx="133" cy="282" r="2" fill="#86efac" opacity="0.14"/>
  <circle cx="289" cy="300" r="3" fill="#86efac" opacity="0.17"/>
  <circle cx="365" cy="332" r="2.5" fill="#86efac" opacity="0.16"/>
  <circle cx="70" cy="378" r="2" fill="#86efac" opacity="0.13"/>
  <circle cx="230" cy="342" r="3" fill="#86efac" opacity="0.19"/>

  <!-- Crosses (pink #fda4af) -->
  <g opacity="0.14" stroke="#fda4af" stroke-width="1.2" stroke-linecap="round">
    <line x1="176" y1="22" x2="176" y2="32"/>
    <line x1="171" y1="27" x2="181" y2="27"/>
  </g>
  <g opacity="0.16" stroke="#fda4af" stroke-width="1.2" stroke-linecap="round">
    <line x1="335" y1="65" x2="335" y2="75"/>
    <line x1="330" y1="70" x2="340" y2="70"/>
  </g>
  <g opacity="0.12" stroke="#fda4af" stroke-width="1.2" stroke-linecap="round">
    <line x1="18" y1="210" x2="18" y2="220"/>
    <line x1="13" y1="215" x2="23" y2="215"/>
  </g>
  <g opacity="0.15" stroke="#fda4af" stroke-width="1.2" stroke-linecap="round">
    <line x1="260" y1="140" x2="260" y2="150"/>
    <line x1="255" y1="145" x2="265" y2="145"/>
  </g>
  <g opacity="0.13" stroke="#fda4af" stroke-width="1.2" stroke-linecap="round">
    <line x1="155" y1="235" x2="155" y2="245"/>
    <line x1="150" y1="240" x2="160" y2="240"/>
  </g>
  <g opacity="0.17" stroke="#fda4af" stroke-width="1.2" stroke-linecap="round">
    <line x1="310" y1="388" x2="310" y2="398"/>
    <line x1="305" y1="393" x2="315" y2="393"/>
  </g>
  <g opacity="0.11" stroke="#fda4af" stroke-width="1.2" stroke-linecap="round">
    <line x1="400" y1="275" x2="400" y2="285"/>
    <line x1="395" y1="280" x2="405" y2="280"/>
  </g>

  <!-- Diamonds (yellow #fde68a) -->
  <polygon points="97,105 102,112 97,119 92,112" fill="#fde68a" opacity="0.16"/>
  <polygon points="238,80 244,88 238,96 232,88" fill="#fde68a" opacity="0.14"/>
  <polygon points="388,220 394,228 388,236 382,228" fill="#fde68a" opacity="0.18"/>
  <polygon points="42,335 48,343 42,351 36,343" fill="#fde68a" opacity="0.13"/>
  <polygon points="180,305 186,313 180,321 174,313" fill="#fde68a" opacity="0.15"/>
  <polygon points="298,170 304,178 298,186 292,178" fill="#fde68a" opacity="0.17"/>
</svg>
